Coordinates
version=1
nRows=5
nColumns=40
inDegrees=yes

Units are S.I. units (second, meters, Newtons, ...)
If the header above contains a line with 'inDegrees', this indicates whether rotational values are in degrees (yes) or radians (no).

endheader
time	pelvis_tilt	pelvis_list	pelvis_rotation	pelvis_tx	pelvis_ty	pelvis_tz	hip_flexion_r	hip_adduction_r	hip_rotation_r	knee_angle_r	knee_angle_r_beta	ankle_angle_r	subtalar_angle_r	mtp_angle_r	hip_flexion_l	hip_adduction_l	hip_rotation_l	knee_angle_l	knee_angle_l_beta	ankle_angle_l	subtalar_angle_l	mtp_angle_l	lumbar_extension	lumbar_bending	lumbar_rotation	arm_flex_r	arm_add_r	arm_rot_r	elbow_flex_r	pro_sup_r	wrist_flex_r	wrist_dev_r	arm_flex_l	arm_add_l	arm_rot_l	elbow_flex_l	pro_sup_l	wrist_flex_l	wrist_dev_l
      0.61500000	      2.38819079	     -3.96342781	     -7.10054547	      0.23371854	      0.90473313	      0.22039228	    -22.03930294	     -1.72660270	    -13.46067075	     13.77988953	      0.24050444	      4.04284208	     12.14589400	      0.00000000	     23.65064519	    -10.59191215	    -25.05144450	     11.14710087	      0.19455361	     -2.91226113	      8.27747660	      0.00000000	     -6.19562134	      3.71313434	      3.10352731	     42.16251904	    -15.69121290	     42.16251904	     75.64969988	     44.99374087	      0.00000000	      0.00000000	     42.16251904	    -15.69121290	     42.16251904	     75.64969988	     44.99374087	      0.00000000	      0.00000000
      0.62000000	      2.55902551	     -3.53188557	     -7.21843758	      0.24152496	      0.90501593	      0.21985307	    -22.32815111	     -2.38679761	    -13.25188261	     14.22960636	      0.24835348	      2.99330563	     11.52085076	      0.00000000	     23.38452726	    -10.21996760	    -25.10123472	     11.90176831	      0.20772504	     -3.38300882	      7.41702558	      0.00000000	     -6.24594629	      3.04991627	      3.33776298	     42.16420505	    -15.69053443	     42.16420505	     75.64845110	     44.99377422	      0.00000000	      0.00000000	     42.16420505	    -15.69053443	     42.16420505	     75.64845110	     44.99377422	      0.00000000	      0.00000000
      0.62500000	      2.72661101	     -3.09308325	     -7.32215611	      0.24934728	      0.90540057	      0.21930462	    -22.57239123	     -3.04530543	    -13.04343411	     14.72671979	      0.25702975	      1.83174575	     10.80283087	      0.00000000	     23.13089793	     -9.84697576	    -25.12316339	     12.68139995	      0.22133218	     -3.85706770	      6.60437312	      0.00000000	     -6.29865387	      2.37867385	      3.55876596	     42.16585685	    -15.68986999	     42.16585685	     75.64722924	     44.99380675	      0.00000000	      0.00000000	     42.16585685	    -15.68986999	     42.16585685	     75.64722924	     44.99380675	      0.00000000	      0.00000000
      0.63000000	      2.88729338	     -2.66908541	     -7.39076613	      0.25716049	      0.90584483	      0.21868624	    -22.77416255	     -3.67113277	    -12.85002150	     15.27363764	      0.26657527	      0.57093346	     10.01574138	      0.00000000	     22.89579929	     -9.48219884	    -25.11863418	     13.47642096	      0.23520792	     -4.30273215	      5.85962122	      0.00000000	     -6.33812509	      1.72422274	      3.75149933	     42.16738352	    -15.68925610	     42.16738352	     75.64610135	     44.99383668	      0.00000000	      0.00000000	     42.16738352	    -15.68925610	     42.16738352	     75.64610135	     44.99383668	      0.00000000	      0.00000000
      0.63500000	      3.02990110	     -2.23267013	     -7.45165791	      0.26501263	      0.90638180	      0.21800840	    -22.90812450	     -4.30015881	    -12.65748265	     15.87661550	      0.27709921	     -0.75711448	      9.04385221	      0.00000000	     22.66702675	     -9.09893712	    -25.09487061	     14.25371681	      0.24877429	     -4.73125190	      5.15442862	      0.00000000	     -6.35642570	      1.06922408	      3.93302799	     42.16922935	    -15.68851415	     42.16922935	     75.64473944	     44.99387270	      0.00000000	      0.00000000	     42.16922935	    -15.68851415	     42.16922935	     75.64473944	     44.99387270	      0.00000000	      0.00000000
